<?xml version="1.0" encoding="utf-8"?>
<!-- Generator: Adobe Illustrator 24.0.0, SVG Export Plug-In . SVG Version: 6.00 Build 0)  -->
<svg version="1.1" id="Layer_1" xmlns="http://www.w3.org/2000/svg" xmlns:xlink="http://www.w3.org/1999/xlink" x="0px" y="0px"
	 viewBox="0 0 990.84 644.57" style="enable-background:new 0 0 990.84 644.57;" xml:space="preserve">
<style type="text/css">
	.st0{fill:#D71E3B;}
	.st1{fill:#F0535F;}
	.st2{fill:#F27176;}
</style>
<g>
	<g>
		<path class="st0" d="M502.28,190.7l25.6-93.62c2.17-7.94,12.57-7.96,14.77-0.03l25.99,93.66
			C568.64,190.7,532.58,213.08,502.28,190.7z"/>
		<g>
			<path class="st0" d="M694.45,326.76l89.07,16.31c7.55,1.38,8.81,12.54,1.79,15.84l-82.95,39.05
				C702.36,397.97,677.5,361.94,694.45,326.76z"/>
			<path class="st0" d="M411.9,275.2l-39.86-87.61c-3.38-7.43,4.25-15.06,10.84-10.84l77.83,49.86
				C460.72,226.62,448.22,269.48,411.9,275.2z"/>
			<path class="st0" d="M571.18,516.36l-21.59,94.8c-1.83,8.04-12.22,8.58-14.75,0.77l-29.95-92.27
				C504.89,519.66,539.96,495.51,571.18,516.36z"/>
			<path class="st0" d="M463.86,523.93l-81.03,43.16c-6.87,3.66-13.94-4.58-10.04-11.71l46.07-84.16
				C418.86,471.23,458.54,484.69,463.86,523.93z"/>
			<path class="st1" d="M687.74,430.27l56.22,76.42c4.77,6.48-1.19,15.69-8.46,13.09l-85.87-30.79
				C649.63,488.98,653.38,444.22,687.74,430.27z"/>
			<path class="st1" d="M713.83,361c0,82.15-48.25,152.13-115.8,178.62c-7.59,3-15.44,5.43-23.47,7.26c-11.78,2.69-24,4.1-36.51,4.1
				c-73.05,0-135.68-48.15-162.21-116.66c-0.68-1.73-1.33-3.47-1.95-5.23c-0.89-2.48-1.72-4.99-2.51-7.51
				c-0.68-2.19-1.32-4.39-1.93-6.62c-1.31-4.8-2.46-9.66-3.41-14.6c-1.54-7.88-2.62-15.94-3.23-24.14
				c-0.36-5.01-0.55-10.07-0.55-15.2c0-104.93,78.7-189.98,175.79-189.98c62.18,0,116.83,34.89,148.08,87.54
				c4.72,7.96,8.92,16.33,12.52,25.05C708.4,307.25,713.83,333.44,713.83,361z"/>
			<g>
				<path class="st1" d="M633.17,481.69l25.23,93.74c2.14,7.95-6.6,14.04-12.42,8.65l-68.67-63.67
					C577.32,520.41,596.49,480.53,633.17,481.69z"/>
				<path class="st0" d="M598.03,539.62c-7.59,3-15.44,5.43-23.47,7.26l2.76-26.47L598.03,539.62z"/>
			</g>
			<g>
				<path class="st0" d="M698.63,283.62l-27.17,17.86l14.66-42.91C690.84,266.53,695.03,274.9,698.63,283.62z"/>
				<path class="st1" d="M627.7,247.57l82.01-40.93c6.95-3.47,13.83,4.96,9.76,11.98l-48.02,82.87
					C671.46,301.48,632.11,286.94,627.7,247.57z"/>
			</g>
			<g>
				<path class="st0" d="M408.53,432.18l-32.7,2.13c-0.68-1.73-1.33-3.47-1.95-5.23c-0.89-2.48-2.02-5.96-2.8-8.48l-18.43-5.26
					c-0.78-3.17-1.27-5.41-1.9-8.64l18.7,8.25L408.53,432.18z"/>
				<path class="st1" d="M411.63,432.18l-37.15-10.62l-18.52-5.29l-31.66-9.04c-7.41-2.12-7.73-13.35-0.46-15.95l42.07-15.08
					l43.8-15.7C409.7,360.5,431.45,398.8,411.63,432.18z"/>
				<path class="st1" d="M370.92,322.26l-29.3-26.88l-14.61-13.39l-24.97-22.9c-5.84-5.36-1.65-15.64,5.95-14.61l43.98,5.98
					l45.79,6.22C397.76,256.67,402.12,301.36,370.92,322.26z"/>
			</g>
			<ellipse class="st2" cx="536.06" cy="354.79" rx="115.32" ry="124.63"/>
			<path class="st1" d="M552.44,265.82c-5.81-16.75-26.86-21.42-47.55-17.22c-18.46,3.75-34.52,14.7-51.08,39.52
				c-28.23,42.3-27.53,121.95,21.13,142.35c48.66,20.4,57.86-35.7,27.62-62.01c-30.25-26.31-8.55-74.67,32.88-80.34
				C553.93,285.59,555.91,275.84,552.44,265.82z"/>
			<path class="st1" d="M568.96,318.89c-7.57-5.3-16.12-8.84-25.08-9.96c-12.52-1.56-27.88,1.16-30.85,22.54
				c-4.56,32.92,44.84,27.35,50.96,58.01c7.19,36.06,53.86,37.31,56.93,4.52C624.16,359.36,585.77,330.68,568.96,318.89z"/>
			<path class="st1" d="M573.42,422.78c-11.25-9.11-26.71-10.02-38.22-1.3c-6.79,5.15-12.08,13.43-9.96,26.66
				c5.01,31.13,56.22,10.13,57.7-7.46C583.57,433.29,578.96,427.27,573.42,422.78z"/>
			<path class="st1" d="M592.78,263.92c-5.87-2.97-12.59-3.63-18.76-1.46c-7.29,2.56-14.72,9.1-11.77,25.52
				c5.35,29.85,48.75,14.2,48.75-2.22C610.99,274.99,600.22,267.68,592.78,263.92z"/>
			<path class="st1" d="M607.33,341.19c3.44,4.09,8.14,6.77,13.23,7.22c6.02,0.53,13.26-1.79,15.73-14.7
				c4.49-23.47-31.47-26.33-36.08-14.38C597.19,327.16,602.97,336.01,607.33,341.19z"/>
		</g>
	</g>
	<g>
		<path class="st0" d="M47.66,446.35L6.13,400.88c-3.52-3.86-0.24-10.3,4.66-9.15l57.87,13.54
			C68.65,405.27,69.11,434.67,47.66,446.35z"/>
		<g>
			<path class="st0" d="M180.57,370.43l36.82-49.98c3.12-4.24,9.43-1.49,8.96,3.9l-5.54,63.7
				C220.81,388.06,193.85,392.05,180.57,370.43z"/>
			<path class="st0" d="M63.86,529.03l-59.05-3.04c-5.01-0.26-6.64-7.4-2.31-10.14l51.05-32.4
				C53.55,483.44,72.31,504.74,63.86,529.03z"/>
			<path class="st0" d="M242.07,506.72l43.42,43.35c3.68,3.68,0.68,10.28-4.26,9.38l-58.38-10.65
				C222.85,548.8,221.14,519.45,242.07,506.72z"/>
			<path class="st0" d="M212.13,575.55l-2.76,63.81c-0.23,5.41-6.84,7.18-9.38,2.51l-30.03-55.14
				C169.96,586.74,189.65,566.44,212.13,575.55z"/>
			<path class="st1" d="M233.31,407.33l58.29-10.63c4.94-0.9,7.94,5.7,4.26,9.38l-43.49,43.42
				C252.37,449.5,229.83,433.01,233.31,407.33z"/>
			<path class="st1" d="M204.85,369.27c43.54,25.99,65.37,77.99,58.04,128.19c-0.81,5.65-2.01,11.27-3.58,16.83
				c-2.3,8.14-5.42,16.15-9.38,23.9c-23.11,45.22-68.44,68.76-113.15,63.51c-1.13-0.12-2.26-0.28-3.39-0.45
				c-1.6-0.24-3.19-0.52-4.78-0.83c-1.37-0.27-2.75-0.57-4.12-0.9c-2.96-0.71-5.9-1.53-8.82-2.51c-4.66-1.54-9.28-3.42-13.82-5.64
				c-2.77-1.36-5.51-2.84-8.23-4.47c-55.62-33.19-75.8-108.82-45.09-168.92c19.67-38.49,55.45-61.29,93.25-63.97
				c5.72-0.41,11.48-0.35,17.24,0.18C174.64,355.63,190.24,360.55,204.85,369.27z"/>
			<g>
				<path class="st1" d="M243.31,457.38l57.67,14.04c4.89,1.19,5.35,8.53,0.65,10.42l-55.47,22.37
					C246.16,504.21,231.08,479.72,243.31,457.38z"/>
				<path class="st0" d="M262.89,497.46c-0.81,5.65-2.01,11.27-3.58,16.83l-13.16-10.08L262.89,497.46z"/>
			</g>
			<g>
				<path class="st0" d="M159.02,354.19l0.87,22.47l-18.11-22.65C147.5,353.61,153.26,353.66,159.02,354.19z"/>
				<path class="st1" d="M117.48,386.7l4.25-63.72c0.36-5.4,7-6.99,9.44-2.25l28.74,55.94C159.9,376.67,139.74,396.43,117.48,386.7z
					"/>
			</g>
			<g>
				<path class="st0" d="M146,580.78l-9.21,20.92c-1.13-0.12-2.26-0.28-3.39-0.45c-1.6-0.24-3.8-0.64-5.38-0.95l-8.62,9.75
					c-1.92-0.52-3.27-0.92-5.18-1.55l10.29-8.97L146,580.78z"/>
				<path class="st1" d="M146.98,578.86l-17.38,19.64l-8.66,9.79l-14.81,16.74c-3.46,3.92-9.52,0.56-8.6-4.76l5.31-30.81l5.53-32.08
					C108.37,557.38,135.55,556.03,146.98,578.86z"/>
				<path class="st1" d="M75.83,569.29l-23.52,9.63l-11.72,4.81l-20.04,8.21c-4.69,1.92-8.81-3.93-5.86-8.3l17.08-25.33l17.78-26.38
					C49.56,531.93,74.63,543.37,75.83,569.29z"/>
			</g>
			<ellipse class="st2" cx="145.32" cy="477.35" rx="75.47" ry="81.56"/>
			<path class="st1" d="M103.34,439.06c-10.72-1.7-19.85,9.86-24.17,23.99c-3.85,12.62-3.13,26.02,4.79,44.12
				c13.49,30.85,55.93,55.62,82.14,31.95c26.2-23.67-0.62-47.11-24.13-36.71c-23.52,10.4-42.29-18.33-32.18-45.77
				C114.29,444.39,109.75,440.08,103.34,439.06z"/>
			<path class="st1" d="M136.7,445.63c-5.21,3.01-9.79,7.18-13.21,12.37c-4.79,7.26-8.21,17.63,2.19,26.23
				c16.01,13.24,28.68-19.11,46.87-13.2c21.39,6.95,36.82-21.54,20.4-33.81C175.61,424.26,148.26,438.95,136.7,445.63z"/>
			<path class="st1" d="M193.18,475.73c-8.39,4.08-13.76,13.36-12.78,23.25c0.58,5.83,3.3,11.73,10.98,14.6
				c18.08,6.75,23.15-31.6,14.3-38.08C201.96,472.77,197.31,473.72,193.18,475.73z"/>
			<path class="st1" d="M115.09,413.49c-3.43,2.7-5.91,6.64-6.71,11.15c-0.95,5.32,0.17,11.99,9.8,15.36
				c17.51,6.13,22.95-25.68,14.24-30.88C126.73,405.72,119.45,410.08,115.09,413.49z"/>
			<path class="st1" d="M160.66,428.93c3.25-0.83,6.16-2.9,8.01-5.91c2.18-3.56,3.25-8.78-2.81-14.39
				c-11.02-10.2-23.91,11.15-19.04,17.79C150.01,430.77,156.53,429.99,160.66,428.93z"/>
		</g>
	</g>
	<g>
		<path class="st0" d="M840.35,185.85l1.07-46.38c0.09-3.93,4.86-5.33,6.78-1.98l22.61,39.53
			C870.81,177.01,856.81,192.09,840.35,185.85z"/>
		<g>
			<path class="st0" d="M944.08,222.7l42.74-4.38c3.62-0.37,5.47,4.58,2.63,7.03l-33.62,28.97
				C955.83,254.33,940.31,241.11,944.08,222.7z"/>
			<path class="st0" d="M808.51,236.67l-28.29-34.9c-2.4-2.96,0.24-7.48,3.74-6.42l41.41,12.52
				C825.37,207.87,824.52,229.21,808.51,236.67z"/>
			<path class="st0" d="M909.12,326.15l0.9,46.39c0.08,3.93-4.63,5.56-6.68,2.32l-24.27-38.36
				C879.07,336.49,892.41,320.74,909.12,326.15z"/>
			<path class="st0" d="M860.72,343.92l-32.27,30.6c-2.74,2.6-6.92-0.25-5.94-4.04l11.55-44.76
				C834.06,325.72,853.8,326.62,860.72,343.92z"/>
			<path class="st1" d="M952.8,271.11l34.52,27.59c2.93,2.34,1.24,7.36-2.39,7.13l-42.93-2.7C942,303.13,938.62,282.09,952.8,271.11
				z"/>
			<path class="st1" d="M956.88,235.84c9.37,37.71-4.8,76.25-32.78,97.41c-3.14,2.39-6.47,4.55-9.95,6.46
				c-5.1,2.8-10.55,5.08-16.29,6.75c-33.53,9.73-67.77-4.03-87.76-31.94c-0.51-0.7-1.01-1.42-1.49-2.14
				c-0.69-1.02-1.36-2.06-2.01-3.12c-0.56-0.91-1.11-1.84-1.64-2.78c-1.15-2.03-2.23-4.11-3.23-6.25c-1.6-3.41-3.02-6.96-4.23-10.65
				c-0.74-2.25-1.4-4.55-1.99-6.9c-11.97-48.16,14.46-97.68,59.02-110.61c28.54-8.28,57.6,0.45,77.95,20.46
				c3.08,3.03,5.96,6.31,8.6,9.83C948.25,211.89,953.73,223.19,956.88,235.84z"/>
			<g>
				<path class="st1" d="M933.62,301.98l22.27,39.67c1.89,3.36-1.43,7.32-4.71,5.62l-38.78-20.08
					C912.4,327.19,916.65,306.33,933.62,301.98z"/>
				<path class="st0" d="M924.09,333.25c-3.14,2.39-6.47,4.55-9.95,6.46l-1.75-12.52L924.09,333.25z"/>
			</g>
			<g>
				<path class="st0" d="M941.07,202.35l-10.43,11.82l1.83-21.65C935.55,195.54,938.43,198.82,941.07,202.35z"/>
				<path class="st1" d="M904.41,195.25l32.97-29.71c2.8-2.52,6.91,0.44,5.85,4.2l-12.59,44.43
					C930.64,214.17,910.92,212.73,904.41,195.25z"/>
			</g>
			<g>
				<path class="st0" d="M824.86,309.18l-14.76,5.33c-0.51-0.7-1.01-1.42-1.49-2.14c-0.69-1.02-1.6-2.47-2.25-3.52l-9.06,0.04
					c-0.72-1.35-1.2-2.31-1.86-3.71l9.52,1.3L824.86,309.18z"/>
				<path class="st1" d="M826.28,308.76l-18.26,0.08l-9.11,0.04l-15.56,0.07c-3.64,0.02-5.07-5.1-2.03-7.26l17.59-12.53l18.31-13.04
					C817.23,276.12,831.58,290.8,826.28,308.76z"/>
				<path class="st1" d="M795.06,263.73l-16.51-8.43l-8.23-4.2l-14.07-7.19c-3.29-1.68-2.54-6.96,1.06-7.5l20.87-3.11l21.73-3.24
					C799.9,230.05,807,249.98,795.06,263.73z"/>
			</g>
			<path class="st2" d="M927.5,241.31c7.85,31.59-9.49,64.08-38.72,72.57s-59.3-10.25-67.15-41.84
				c-7.85-31.59,9.49-64.08,38.72-72.57C889.59,190.98,919.65,209.71,927.5,241.31z"/>
			<path class="st1" d="M871.94,213.65c-4.58-6.92-14.77-6.25-23.79-1.57c-8.05,4.18-14.17,11.35-18.94,24.94
				c-8.13,23.17,1.27,59.64,25.93,62.52c24.66,2.88,22.49-24.09,5.6-32.14c-16.88-8.05-12.44-33.14,5.93-41.25
				C874.88,222.52,874.68,217.78,871.94,213.65z"/>
			<path class="st1" d="M885.58,235.81c-4.08-1.43-8.41-1.91-12.65-1.23c-5.93,0.95-12.67,4.25-11.59,14.46
				c1.66,15.72,23.7,6.58,30.01,19.84c7.41,15.59,28.98,9.95,26.64-5.51C915.53,247.03,894.64,238.98,885.58,235.81z"/>
			<path class="st1" d="M899.47,282.9c-6.2-2.68-13.4-1.04-17.69,4.5c-2.53,3.27-4.01,7.77-1.53,13.56
				c5.85,13.62,26.96-2.84,25.63-11.11C905.33,286.37,902.53,284.22,899.47,282.9z"/>
			<path class="st1" d="M890.24,207.4c-3.03-0.58-6.19,0.01-8.78,1.83c-3.05,2.15-5.72,6.14-2.49,13.28
				c5.86,12.99,24,0.03,22.12-7.51C899.86,210.06,894.09,208.14,890.24,207.4z"/>
			<path class="st1" d="M905.73,240.93c2.04,1.42,4.51,2.02,6.9,1.55c2.82-0.56,5.88-2.59,5.55-8.84
				c-0.61-11.37-17.45-7.89-18.2-1.79C899.48,235.84,903.14,239.13,905.73,240.93z"/>
		</g>
	</g>
	<g>
		<path class="st0" d="M373.58,33l0.7-30.46c0.06-2.58,3.19-3.5,4.45-1.3l14.85,25.96C393.58,27.2,384.39,37.1,373.58,33z"/>
		<g>
			<path class="st0" d="M441.7,57.21l28.07-2.87c2.38-0.24,3.6,3.01,1.73,4.62l-22.08,19.03C449.42,77.98,439.23,69.3,441.7,57.21z"
				/>
			<path class="st0" d="M352.66,66.38l-18.58-22.92c-1.58-1.94,0.15-4.91,2.46-4.22l27.2,8.22
				C363.74,47.47,363.18,61.48,352.66,66.38z"/>
			<path class="st0" d="M418.74,125.15l0.59,30.47c0.05,2.58-3.04,3.65-4.39,1.52l-15.94-25.19
				C399.01,131.94,407.77,121.59,418.74,125.15z"/>
			<path class="st0" d="M386.96,136.82l-21.19,20.1c-1.8,1.7-4.55-0.16-3.9-2.65l7.58-29.4
				C369.44,124.87,382.41,125.46,386.96,136.82z"/>
			<path class="st1" d="M447.43,89l22.67,18.12c1.92,1.54,0.82,4.83-1.57,4.68l-28.19-1.77C440.34,110.03,438.12,96.21,447.43,89z"
				/>
			<path class="st1" d="M450.11,65.84c6.15,24.77-3.15,50.08-21.53,63.98c-2.06,1.57-4.25,2.99-6.53,4.24
				c-3.35,1.84-6.93,3.34-10.7,4.43c-22.02,6.39-44.51-2.65-57.64-20.98c-0.33-0.46-0.66-0.93-0.98-1.41
				c-0.45-0.67-0.89-1.35-1.32-2.05c-0.37-0.6-0.73-1.21-1.08-1.83c-0.75-1.33-1.46-2.7-2.12-4.1c-1.05-2.24-1.98-4.57-2.78-7
				c-0.49-1.48-0.92-2.99-1.31-4.53c-7.86-31.63,9.49-64.16,38.76-72.65c18.74-5.44,37.83,0.3,51.2,13.44
				c2.02,1.99,3.91,4.14,5.65,6.46C444.44,50.11,448.04,57.53,450.11,65.84z"/>
			<g>
				<path class="st1" d="M434.83,109.28l14.63,26.05c1.24,2.21-0.94,4.81-3.1,3.69l-25.47-13.19
					C420.9,125.84,423.69,112.13,434.83,109.28z"/>
				<path class="st0" d="M428.58,129.81c-2.06,1.57-4.25,2.99-6.53,4.24l-1.15-8.22L428.58,129.81z"/>
			</g>
			<g>
				<path class="st0" d="M439.73,43.84l-6.85,7.76l1.2-14.22C436.1,39.37,437.99,41.52,439.73,43.84z"/>
				<path class="st1" d="M415.65,39.17l21.66-19.51c1.84-1.65,4.54,0.29,3.84,2.76l-8.27,29.18
					C432.88,51.6,419.93,50.66,415.65,39.17z"/>
			</g>
			<g>
				<path class="st0" d="M363.4,114l-9.7,3.5c-0.33-0.46-0.66-0.93-0.98-1.41c-0.45-0.67-1.05-1.62-1.48-2.31l-5.95,0.03
					c-0.47-0.89-0.79-1.52-1.22-2.44l6.26,0.85L363.4,114z"/>
				<path class="st1" d="M364.34,113.73l-12,0.05l-5.98,0.03l-10.22,0.04c-2.39,0.01-3.33-3.35-1.33-4.77l11.55-8.23l12.03-8.57
					C358.39,92.29,367.81,101.93,364.34,113.73z"/>
				<path class="st1" d="M343.83,84.15l-10.85-5.54l-5.41-2.76l-9.24-4.72c-2.16-1.1-1.67-4.57,0.7-4.92l13.71-2.05l14.27-2.13
					C347.01,62.03,351.67,75.12,343.83,84.15z"/>
			</g>
			<path class="st2" d="M430.82,69.43c5.16,20.75-6.23,42.09-25.43,47.66c-19.2,5.57-38.95-6.73-44.1-27.48
				c-5.16-20.75,6.23-42.09,25.43-47.66S425.66,48.68,430.82,69.43z"/>
			<path class="st1" d="M394.33,51.26c-3.01-4.54-9.7-4.11-15.62-1.03c-5.29,2.75-9.31,7.45-12.44,16.38
				c-5.34,15.22,0.84,39.17,17.03,41.07s14.77-15.82,3.68-21.11c-11.09-5.29-8.17-21.76,3.89-27.1
				C396.26,57.09,396.12,53.98,394.33,51.26z"/>
			<path class="st1" d="M403.28,65.81c-2.68-0.94-5.52-1.26-8.31-0.81c-3.89,0.63-8.32,2.79-7.61,9.49
				c1.09,10.32,15.57,4.32,19.71,13.03c4.87,10.24,19.03,6.54,17.5-3.62C422.95,73.18,409.23,67.9,403.28,65.81z"/>
			<path class="st1" d="M412.41,96.74c-4.07-1.76-8.8-0.68-11.62,2.95c-1.66,2.15-2.64,5.11-1,8.91c3.84,8.95,17.71-1.87,16.84-7.3
				C416.25,99.02,414.42,97.61,412.41,96.74z"/>
			<path class="st1" d="M406.34,47.16c-1.99-0.38-4.07,0.01-5.76,1.2c-2,1.41-3.76,4.03-1.64,8.72c3.85,8.53,15.76,0.02,14.53-4.94
				C412.67,48.9,408.87,47.64,406.34,47.16z"/>
			<path class="st1" d="M416.52,69.18c1.34,0.93,2.96,1.33,4.53,1.02c1.85-0.37,3.86-1.7,3.64-5.81c-0.4-7.47-11.46-5.18-11.96-1.18
				C412.41,65.84,414.82,68,416.52,69.18z"/>
		</g>
	</g>
	<g>
		<path class="st0" d="M840.12,468.15l0.7-30.46c0.06-2.58,3.19-3.5,4.45-1.3l14.85,25.96
			C860.13,462.35,850.93,472.25,840.12,468.15z"/>
		<g>
			<path class="st0" d="M908.24,492.36l28.07-2.87c2.38-0.24,3.6,3.01,1.73,4.62l-22.08,19.03
				C915.96,513.13,905.77,504.45,908.24,492.36z"/>
			<path class="st0" d="M819.2,501.53l-18.58-22.92c-1.58-1.94,0.15-4.91,2.46-4.22l27.2,8.22
				C830.28,482.62,829.72,496.63,819.2,501.53z"/>
			<path class="st0" d="M885.29,560.3l0.59,30.47c0.05,2.58-3.04,3.65-4.39,1.52l-15.94-25.19
				C865.55,567.09,874.31,556.74,885.29,560.3z"/>
			<path class="st0" d="M853.5,571.97l-21.19,20.1c-1.8,1.7-4.55-0.16-3.9-2.65l7.58-29.4C835.98,560.02,848.95,560.61,853.5,571.97
				z"/>
			<path class="st1" d="M913.97,524.15l22.67,18.12c1.92,1.54,0.82,4.83-1.57,4.68l-28.19-1.77
				C906.88,545.18,904.66,531.36,913.97,524.15z"/>
			<path class="st1" d="M916.65,500.99c6.15,24.77-3.15,50.08-21.53,63.98c-2.07,1.57-4.25,2.99-6.53,4.24
				c-3.35,1.84-6.93,3.34-10.7,4.43c-22.02,6.39-44.51-2.65-57.64-20.98c-0.33-0.46-0.66-0.93-0.98-1.41
				c-0.45-0.67-0.89-1.35-1.32-2.05c-0.37-0.6-0.73-1.21-1.08-1.83c-0.75-1.33-1.46-2.7-2.12-4.1c-1.05-2.24-1.98-4.57-2.78-7
				c-0.49-1.48-0.92-2.99-1.31-4.53c-7.86-31.63,9.49-64.16,38.76-72.65c18.74-5.44,37.83,0.3,51.2,13.44
				c2.02,1.99,3.91,4.14,5.65,6.46C910.99,485.26,914.59,492.68,916.65,500.99z"/>
			<g>
				<path class="st1" d="M901.38,544.43L916,570.48c1.24,2.21-0.94,4.81-3.1,3.69l-25.47-13.19
					C887.44,560.98,890.23,547.28,901.38,544.43z"/>
				<path class="st0" d="M895.12,564.96c-2.07,1.57-4.25,2.99-6.53,4.24l-1.15-8.22L895.12,564.96z"/>
			</g>
			<g>
				<path class="st0" d="M906.27,478.99l-6.85,7.76l1.2-14.22C902.64,474.52,904.53,476.67,906.27,478.99z"/>
				<path class="st1" d="M882.19,474.32l21.66-19.51c1.84-1.65,4.54,0.29,3.84,2.76l-8.27,29.18
					C899.42,486.75,886.47,485.81,882.19,474.32z"/>
			</g>
			<g>
				<path class="st0" d="M829.94,549.15l-9.7,3.5c-0.33-0.46-0.66-0.93-0.98-1.41c-0.45-0.67-1.05-1.62-1.48-2.31l-5.95,0.03
					c-0.47-0.89-0.79-1.52-1.22-2.44l6.26,0.85L829.94,549.15z"/>
				<path class="st1" d="M830.88,548.88l-12,0.05l-5.98,0.03L802.68,549c-2.39,0.01-3.33-3.35-1.33-4.77L812.9,536l12.03-8.56
					C824.93,527.44,834.36,537.08,830.88,548.88z"/>
				<path class="st1" d="M810.37,519.3l-10.85-5.54l-5.41-2.76l-9.24-4.72c-2.16-1.1-1.67-4.57,0.7-4.92l13.71-2.05l14.27-2.13
					C813.55,497.18,818.21,510.27,810.37,519.3z"/>
			</g>
			<path class="st2" d="M897.36,504.58c5.16,20.75-6.23,42.09-25.43,47.66c-19.2,5.57-38.95-6.73-44.1-27.48
				c-5.16-20.75,6.23-42.09,25.43-47.66C872.46,471.52,892.2,483.83,897.36,504.58z"/>
			<path class="st1" d="M860.87,486.41c-3.01-4.54-9.7-4.11-15.62-1.03c-5.29,2.75-9.31,7.45-12.44,16.38
				c-5.34,15.22,0.84,39.17,17.03,41.07s14.77-15.82,3.68-21.11c-11.09-5.29-8.17-21.76,3.89-27.1
				C862.8,492.24,862.67,489.13,860.87,486.41z"/>
			<path class="st1" d="M869.82,500.96c-2.68-0.94-5.52-1.26-8.31-0.81c-3.89,0.63-8.32,2.79-7.61,9.49
				c1.09,10.32,15.57,4.32,19.71,13.03c4.87,10.24,19.03,6.54,17.5-3.62C889.5,508.33,875.77,503.05,869.82,500.96z"/>
			<path class="st1" d="M878.95,531.89c-4.07-1.76-8.8-0.68-11.62,2.95c-1.66,2.15-2.64,5.11-1,8.91c3.84,8.95,17.71-1.87,16.84-7.3
				C882.8,534.17,880.96,532.76,878.95,531.89z"/>
			<path class="st1" d="M872.89,482.31c-1.99-0.38-4.07,0.01-5.76,1.2c-2,1.41-3.75,4.03-1.64,8.72c3.85,8.53,15.76,0.02,14.53-4.94
				C879.21,484.05,875.41,482.79,872.89,482.31z"/>
			<path class="st1" d="M883.06,504.33c1.34,0.93,2.96,1.33,4.53,1.02c1.85-0.37,3.86-1.7,3.64-5.81
				c-0.4-7.47-11.46-5.18-11.96-1.18C878.95,500.99,881.36,503.15,883.06,504.33z"/>
		</g>
	</g>
</g>
</svg>
